<svg xmlns="http://www.w3.org/2000/svg" width="223.625" height="53.795" viewBox="0 0 223.625 53.795"><g transform="translate(-141.375 -25)"><g transform="translate(141.375 25)"><g transform="translate(47.414 7.897)"><path d="M177.7,92.294c0-6.164,4.521-10.685,10.931-10.685s10.849,4.52,10.849,10.685v1.438H181.812c.575,3.616,3.287,5.63,6.821,5.63,2.63,0,4.48-.822,5.671-2.589h4.315c-1.561,3.781-5.26,6.206-9.987,6.206C182.223,102.979,177.7,98.458,177.7,92.294Zm17.671-2.055a6.5,6.5,0,0,0-6.74-5.014,6.438,6.438,0,0,0-6.7,5.014Z" transform="translate(-177.702 -73.267)"/><path d="M258.991,55.248h3.9V84.426h-3.9Z" transform="translate(-233.266 -55.248)"/><path d="M283.79,92.294c0-6.164,4.521-10.685,10.931-10.685s10.849,4.52,10.849,10.685v1.438H287.9c.575,3.616,3.287,5.63,6.822,5.63,2.63,0,4.479-.822,5.671-2.589h4.315c-1.562,3.781-5.26,6.206-9.986,6.206C288.311,102.979,283.79,98.458,283.79,92.294Zm17.671-2.055a6.5,6.5,0,0,0-6.74-5.014,6.439,6.439,0,0,0-6.7,5.014Z" transform="translate(-250.216 -73.267)"/><path d="M360.144,92.294c0-6.164,4.521-10.685,10.931-10.685,5.383,0,9.411,3.206,10.48,7.89H377.61a7.069,7.069,0,1,0,0,5.589h3.945c-1.068,4.685-5.1,7.891-10.48,7.891C364.665,102.979,360.144,98.458,360.144,92.294Z" transform="translate(-302.407 -73.267)"/><path d="M438.054,80.38V60.572h3.9v7.192h11.178v3.575H441.958V80.38c0,3.206,1.685,4.6,4.233,4.6s4.274-1.356,4.274-4.6v-.452h3.863v.452c0,5.507-3.288,8.219-8.137,8.219S438.054,85.887,438.054,80.38Z" transform="translate(-355.661 -58.887)"/><path d="M499.733,90.486c0-6,3.534-8.877,8.753-8.877,5.178,0,8.712,2.877,8.712,8.918v.205h-3.862v-.247c0-3.739-1.973-5.26-4.85-5.26-2.918,0-4.849,1.521-4.849,5.26v11.959h-3.9Z" transform="translate(-397.82 -73.267)"/><path d="M563.229,58.61a2.712,2.712,0,1,1,5.424,0,2.712,2.712,0,1,1-5.424,0Zm.781,5.959h3.9v20.3h-3.9Z" transform="translate(-441.222 -55.692)"/><path d="M590.368,92.294c0-6.164,4.521-10.685,10.932-10.685,5.383,0,9.411,3.206,10.48,7.89h-3.945a7.069,7.069,0,1,0,0,5.589h3.945c-1.068,4.685-5.1,7.891-10.48,7.891C594.889,102.979,590.368,98.458,590.368,92.294Z" transform="translate(-459.772 -73.267)"/><path d="M665.68,92.458c0-6.37,4.521-10.849,10.973-10.849,6.37,0,10.808,4.356,10.808,10.849v9.987h-3.575V98.006a8.093,8.093,0,0,1-7.891,4.973A10.11,10.11,0,0,1,665.68,92.458Zm17.918-.164a6.987,6.987,0,1,0-6.986,7.068A6.71,6.71,0,0,0,683.6,92.294Z" transform="translate(-511.25 -73.267)"/></g><g transform="translate(0)"><path d="M65.349,103.3l-6.1-4.4-20.38,18.566a.486.486,0,0,1-.813-.359V101.8a.486.486,0,0,0-.8-.373l-9.384,7.806v20.775a.972.972,0,0,0,1.54.788l35.93-25.924A.972.972,0,0,0,65.349,103.3Z" transform="translate(-27.879 -77.187)" fill="#00c8ff"/><path d="M42.121,44.175a.486.486,0,0,1,.8.373V59.215a.486.486,0,0,0,.813.359L55.227,49.1,29.419,30.48a.972.972,0,0,0-1.54.788V56.023Z" transform="translate(-27.879 -30.295)" fill="#00c8ff"/></g></g></g></svg>