<svg xmlns="http://www.w3.org/2000/svg" width="204" height="49.074" viewBox="0 0 204 49.074"><g transform="translate(-141.375 -25)"><g transform="translate(141.375 25)"><g transform="translate(43.253 7.204)"><path d="M177.7,91.356c0-5.624,4.124-9.747,9.972-9.747s9.9,4.124,9.9,9.747v1.312h-16.12a5.89,5.89,0,0,0,6.223,5.136c2.4,0,4.087-.75,5.174-2.362h3.936c-1.424,3.449-4.8,5.661-9.11,5.661C181.826,101.1,177.7,96.98,177.7,91.356Zm16.121-1.875a5.933,5.933,0,0,0-6.148-4.574,5.873,5.873,0,0,0-6.11,4.574Z" transform="translate(-177.702 -73.999)" fill="#fff"/><path d="M258.991,55.248h3.561V81.866h-3.561Z" transform="translate(-235.523 -55.248)" fill="#fff"/><path d="M283.79,91.356c0-5.624,4.124-9.747,9.972-9.747s9.9,4.124,9.9,9.747v1.312h-16.12a5.89,5.89,0,0,0,6.223,5.136c2.4,0,4.086-.75,5.174-2.362h3.936c-1.425,3.449-4.8,5.661-9.11,5.661C287.914,101.1,283.79,96.98,283.79,91.356Zm16.121-1.875a5.933,5.933,0,0,0-6.148-4.574,5.874,5.874,0,0,0-6.111,4.574Z" transform="translate(-253.163 -73.999)" fill="#fff"/><path d="M360.144,91.356c0-5.624,4.124-9.747,9.972-9.747,4.911,0,8.585,2.924,9.56,7.2h-3.6a6.448,6.448,0,1,0,0,5.1h3.6c-.975,4.274-4.649,7.2-9.56,7.2C364.268,101.1,360.144,96.98,360.144,91.356Z" transform="translate(-307.474 -73.999)" fill="#fff"/><path d="M438.054,78.642V60.572h3.561v6.561h10.2v3.261h-10.2v8.247c0,2.924,1.537,4.2,3.861,4.2s3.9-1.237,3.9-4.2V78.23H452.9v.412c0,5.024-3,7.5-7.423,7.5S438.054,83.665,438.054,78.642Z" transform="translate(-362.891 -59.035)" fill="#fff"/><path d="M499.733,89.707c0-5.473,3.224-8.1,7.985-8.1,4.723,0,7.947,2.624,7.947,8.135v.187h-3.523v-.225c0-3.411-1.8-4.8-4.424-4.8-2.662,0-4.424,1.387-4.424,4.8v10.91h-3.561Z" transform="translate(-406.764 -73.999)" fill="#fff"/><path d="M563.229,58.372a2.474,2.474,0,1,1,4.948,0,2.474,2.474,0,1,1-4.948,0Zm.713,5.436H567.5v18.52h-3.561Z" transform="translate(-451.929 -55.71)" fill="#fff"/><path d="M590.368,91.356c0-5.624,4.124-9.747,9.972-9.747,4.911,0,8.585,2.924,9.56,7.2h-3.6a6.448,6.448,0,1,0,0,5.1h3.6c-.975,4.274-4.649,7.2-9.56,7.2C594.492,101.1,590.368,96.98,590.368,91.356Z" transform="translate(-471.233 -73.999)" fill="#fff"/><path d="M665.68,91.506c0-5.811,4.124-9.9,10.01-9.9,5.811,0,9.86,3.974,9.86,9.9v9.11h-3.261V96.567a7.383,7.383,0,0,1-7.2,4.536A9.222,9.222,0,0,1,665.68,91.506Zm16.345-.15a6.374,6.374,0,1,0-6.373,6.448A6.121,6.121,0,0,0,682.025,91.356Z" transform="translate(-524.802 -73.999)" fill="#fff"/></g><g transform="translate(0)"><path d="M62.061,102.91,56.5,98.9,37.908,115.834a.443.443,0,0,1-.742-.328v-13.96a.443.443,0,0,0-.726-.341l-8.561,7.121v18.952a.887.887,0,0,0,1.405.719l32.777-23.649A.887.887,0,0,0,62.061,102.91Z" transform="translate(-27.879 -79.092)" fill="#fff"/><path d="M40.871,42.957a.443.443,0,0,1,.727.341V56.677A.443.443,0,0,0,42.34,57l10.487-9.554L29.284,30.464a.886.886,0,0,0-1.405.719V53.765Z" transform="translate(-27.879 -30.295)" fill="#fff"/></g></g></g></svg>