<svg xmlns="http://www.w3.org/2000/svg" width="223.625" height="53.795"><path d="M47.412 26.924c0-6.164 4.521-10.685 10.931-10.685s10.849 4.52 10.849 10.685v1.438H51.524c.575 3.616 3.287 5.63 6.821 5.63 2.63 0 4.48-.822 5.671-2.589h4.315c-1.561 3.781-5.26 6.206-9.987 6.206-6.409 0-10.932-4.521-10.932-10.685zm17.671-2.055a6.5 6.5 0 0 0-6.74-5.014 6.438 6.438 0 0 0-6.7 5.014zm8.056-16.972h3.9v29.178h-3.9zm7.849 19.027c0-6.164 4.521-10.685 10.931-10.685s10.849 4.52 10.849 10.685v1.438h-17.67c.575 3.616 3.287 5.63 6.822 5.63 2.63 0 4.479-.822 5.671-2.589h4.315c-1.562 3.781-5.26 6.206-9.986 6.206-6.411 0-10.932-4.521-10.932-10.685zm17.671-2.055a6.5 6.5 0 0 0-6.74-5.014 6.439 6.439 0 0 0-6.7 5.014zm6.492 2.055c0-6.164 4.521-10.685 10.931-10.685 5.383 0 9.411 3.206 10.48 7.89h-3.945a7.069 7.069 0 1 0 0 5.589h3.945c-1.068 4.685-5.1 7.891-10.48 7.891-6.41 0-10.931-4.521-10.931-10.685zm24.656 2.466V9.582h3.9v7.192h11.178v3.575h-11.174v9.041c0 3.206 1.685 4.6 4.233 4.6s4.274-1.356 4.274-4.6v-.452h3.863v.452c0 5.507-3.288 8.219-8.137 8.219s-8.137-2.712-8.137-8.219zm19.52-4.274c0-6 3.534-8.877 8.753-8.877 5.178 0 8.712 2.877 8.712 8.918v.205h-3.862v-.247c0-3.739-1.973-5.26-4.85-5.26-2.918 0-4.849 1.521-4.849 5.26v11.959h-3.9zm20.094-14.301a2.712 2.712 0 1 1 5.424 0 2.712 2.712 0 1 1-5.424 0zm.781 5.959h3.9v20.3h-3.9zm7.808 10.15c0-6.164 4.521-10.685 10.932-10.685 5.383 0 9.411 3.206 10.48 7.89h-3.945a7.069 7.069 0 1 0 0 5.589h3.945c-1.068 4.685-5.1 7.891-10.48 7.891-6.411 0-10.932-4.521-10.932-10.685zm23.834.164c0-6.37 4.521-10.849 10.973-10.849 6.37 0 10.808 4.356 10.808 10.849v9.987h-3.575v-4.439a8.093 8.093 0 0 1-7.891 4.973 10.11 10.11 0 0 1-10.315-10.521zm17.918-.164a6.987 6.987 0 1 0-6.986 7.068 6.71 6.71 0 0 0 6.988-7.068z"/><g fill="#00c8ff"><path d="M37.47 26.113l-6.1-4.4-20.38 18.566a.486.486 0 0 1-.813-.359V24.613a.486.486 0 0 0-.8-.373l-9.384 7.806v20.775a.972.972 0 0 0 1.54.788l35.93-25.924a.972.972 0 0 0 .007-1.572z"/><path d="M14.242 13.88a.486.486 0 0 1 .8.373V28.92a.486.486 0 0 0 .813.359l11.493-10.474L1.54.185A.972.972 0 0 0 0 .973v24.755z"/></g></svg>