<svg xmlns="http://www.w3.org/2000/svg" width="204" height="49.074"><g fill="#fff"><path d="M43.251 24.561c0-5.624 4.124-9.747 9.972-9.747s9.9 4.124 9.9 9.747v1.312h-16.12a5.89 5.89 0 006.223 5.136c2.4 0 4.087-.75 5.174-2.362h3.936c-1.424 3.449-4.8 5.661-9.11 5.661-5.849-.003-9.975-4.123-9.975-9.747zm16.121-1.875a5.933 5.933 0 00-6.148-4.574 5.873 5.873 0 00-6.11 4.574zm7.349-15.482h3.561v26.618h-3.561zm7.159 17.357c0-5.624 4.124-9.747 9.972-9.747s9.9 4.124 9.9 9.747v1.312h-16.12a5.89 5.89 0 006.223 5.136c2.4 0 4.086-.75 5.174-2.362h3.936c-1.425 3.449-4.8 5.661-9.11 5.661-5.851-.003-9.975-4.123-9.975-9.747zm16.121-1.875a5.933 5.933 0 00-6.148-4.574 5.874 5.874 0 00-6.111 4.574zm5.922 1.875c0-5.624 4.124-9.747 9.972-9.747 4.911 0 8.585 2.924 9.56 7.2h-3.6a6.448 6.448 0 100 5.1h3.6c-.975 4.274-4.649 7.2-9.56 7.2-5.848-.009-9.972-4.129-9.972-9.753zm22.493 2.25V8.741h3.561v6.561h10.2v3.261h-10.2v8.247c0 2.924 1.537 4.2 3.861 4.2s3.9-1.237 3.9-4.2v-.411h3.524v.412c0 5.024-3 7.5-7.423 7.5s-7.423-2.477-7.423-7.5zm17.806-3.899c0-5.473 3.224-8.1 7.985-8.1 4.723 0 7.947 2.624 7.947 8.135v.187h-3.523v-.225c0-3.411-1.8-4.8-4.424-4.8-2.662 0-4.424 1.387-4.424 4.8v10.91h-3.561zm18.331-13.046a2.474 2.474 0 114.948 0 2.474 2.474 0 11-4.948 0zm.713 5.436h3.558v18.52h-3.561zm7.122 9.259c0-5.624 4.124-9.747 9.972-9.747 4.911 0 8.585 2.924 9.56 7.2h-3.6a6.448 6.448 0 100 5.1h3.6c-.975 4.274-4.649 7.2-9.56 7.2-5.848-.009-9.972-4.129-9.972-9.753zm21.743.15c0-5.811 4.124-9.9 10.01-9.9 5.811 0 9.86 3.974 9.86 9.9v9.11h-3.261v-4.049a7.383 7.383 0 01-7.2 4.536 9.222 9.222 0 01-9.409-9.597zm16.345-.15a6.374 6.374 0 10-6.373 6.448 6.121 6.121 0 006.373-6.448zm-166.294-.743l-5.561-4.01-18.592 16.934a.443.443 0 01-.742-.328v-13.96a.443.443 0 00-.726-.341L0 29.234v18.952a.887.887 0 001.405.719l32.777-23.649a.887.887 0 000-1.438z"/><path d="M12.992 12.662a.443.443 0 01.727.341v13.379a.443.443 0 00.742.323l10.487-9.554L1.405.169A.886.886 0 000 .888V23.47z"/></g></svg>